<svg width="120" height="104" viewBox="0 0 120 104" fill="none" xmlns="http://www.w3.org/2000/svg">
<path d="M74.6309 4.11573C72.9472 4.19532 71.4404 5.1852 70.6987 6.69886L53.1786 42.4576L36.8471 82.1236L34.1572 80.4887L66.7619 6.36613C67.1263 5.53785 66.8207 4.56779 66.0475 4.09781L65.1961 3.58039C59.7095 0.245779 53.1372 -0.813141 46.8809 0.629494C45.0793 1.04493 43.6623 2.43476 43.2122 4.22803L33.9618 41.0785L29.9728 77.9456L27.3825 76.3713L31.6034 42.6169C31.8755 40.4403 32.3017 38.2857 32.8787 36.1694L41.3155 5.22407C41.7497 3.63122 40.4365 2.10401 38.7966 2.29466L29.8522 3.33448C29.6829 3.35415 29.5155 3.38771 29.3518 3.43481C24.7532 4.75755 21.3214 8.6014 20.5263 13.3199L17.5638 30.9015C16.7836 35.5318 16.8095 40.2621 17.6402 44.8837L22.7996 73.5859L20.4086 72.1327L16.4228 47.5128C15.7354 43.2665 15.6388 38.9454 16.1357 34.6726L18.334 15.7721C18.6701 12.8824 16.1579 10.4685 13.2838 10.9198C6.84283 11.931 1.84394 17.075 1.01724 23.5422L0.349878 28.763C-0.902041 38.5566 1.22764 48.4842 6.38644 56.9026L12.9365 67.5914L20.7624 76.7134L19.937 78.951C19.3742 80.4765 19.2378 82.1266 19.5425 83.7237C19.8269 85.2153 20.7298 86.5165 22.0274 87.3052L23.1774 88.0041L26.2597 96.5823C26.6649 97.7101 27.353 98.7148 28.2581 99.5002L29.5607 100.631C30.5634 101.501 31.7073 102.193 32.9432 102.678L34.4068 103.252C35.5444 103.699 36.7792 103.839 37.9881 103.66L46.7891 102.355L47.926 103.046C48.9387 103.661 50.1109 103.963 51.2949 103.913C53.391 103.826 55.4065 103.081 57.0563 101.785L59.2186 100.086L68.6283 101.439L81.1326 102.331C90.981 103.034 100.774 100.352 108.891 94.7311L113.218 91.7345C118.578 88.0225 120.842 81.2164 118.773 75.0333C117.85 72.2743 114.551 71.1559 112.14 72.785L96.3756 83.4401C92.8116 85.849 88.9316 87.7531 84.8457 89.0983L61.1562 96.898L58.7652 95.4448L86.6189 86.807C91.1037 85.4161 95.3145 83.2607 99.0654 80.4359L113.308 69.7098C117.13 66.8311 118.961 62.0147 118.018 57.3236C117.984 57.1566 117.937 56.9926 117.877 56.8332L114.681 48.4148C114.095 46.8713 112.134 46.4089 110.92 47.5279L87.3367 69.2674C85.7238 70.7542 84.0076 72.1247 82.2008 73.3686L54.1823 92.6594L51.592 91.0851L82.4803 70.5667L110.931 45.3856C112.315 44.1602 112.897 42.2624 112.436 40.4719C110.835 34.2541 106.869 28.9078 101.382 25.5732L100.531 25.0558C99.7575 24.5858 98.7557 24.7613 98.1882 25.4662L47.4076 88.542L45.1162 87.1493L72.7056 54.3255L96.2467 22.3028C97.2676 20.9142 97.4444 19.0774 96.7073 17.5195L96.6106 17.3152C92.6203 8.88185 83.9502 3.6752 74.6309 4.11573Z" fill="#ED9898"/>
</svg>
