<svg width="167" height="175" viewBox="0 0 167 175" fill="none" xmlns="http://www.w3.org/2000/svg">
<path fill-rule="evenodd" clip-rule="evenodd" d="M165.031 52.6651C168.795 45.7859 163.537 37.4489 155.707 37.881L111.861 40.3006C108.76 40.4717 105.755 39.1925 103.73 36.8386L75.8493 4.44025C70.1878 -2.13861 59.408 1.12401 58.3448 9.73814L53.5291 48.7571C53.073 52.4524 50.6016 55.5884 47.1152 56.8956L6.84256 71.9957C-1.12775 74.9841 -1.95792 85.9296 5.47048 90.086L44.4286 111.884C47.4158 113.556 49.3406 116.639 49.5303 120.057L52.0268 165.04C52.4947 173.47 62.5536 177.562 68.7736 171.853L100.737 142.515C103.414 140.057 107.215 139.245 110.663 140.395L147.666 152.738C155.848 155.466 163.416 147.251 160.025 139.32L143.337 100.281C142.131 97.4604 142.286 94.2423 143.759 91.551L165.031 52.6651ZM148.861 56.2604C135.385 60.7114 123.15 68.277 113.149 78.3428L112.928 78.5653C111.761 79.7406 109.861 79.7469 108.685 78.5794C107.509 77.412 107.502 75.5128 108.67 74.3376L108.891 74.115C119.557 63.38 132.606 55.3113 146.977 50.5644L148.861 56.2604ZM104.708 109.783C118.387 116.228 130.728 125.546 140.97 137.163L145.193 133.004C134.403 120.765 121.4 110.946 106.988 104.156L106.684 104.013C105.203 103.315 103.492 104.009 102.863 105.563C102.233 107.117 102.923 108.942 104.404 109.639L104.708 109.783ZM68.8017 94.1908C55.0539 88.1299 40.4127 85.1468 25.9137 85.4526L25.5924 85.4594C23.9653 85.4937 22.5141 84.1614 22.351 82.4836C22.1879 80.8057 23.3748 79.4178 25.0019 79.3835L25.3232 79.3767C40.6854 79.0528 56.1984 82.2135 70.7647 88.6352L68.8017 94.1908ZM67.2557 151.68C73.898 138.788 77.6482 124.325 78.2408 109.312L84.0941 109.988C83.4661 125.895 79.4927 141.22 72.4549 154.879L72.3077 155.165C71.5623 156.611 69.7941 157.068 68.3584 156.185C66.9227 155.301 66.3631 153.412 67.1085 151.966L67.2557 151.68ZM68.9671 23.0471C74.9058 37.3502 77.8577 52.5303 77.6404 67.6499L77.6356 67.9855C77.6121 69.6224 78.9487 71.044 80.621 71.1608C82.2934 71.2775 83.6681 70.0451 83.6917 68.4082L83.6965 68.0726C83.9254 52.1428 80.8154 36.1491 74.5584 21.0795L68.9671 23.0471Z" fill="#FDBF7C"/>
</svg>
