<svg width="1728" height="6980" viewBox="0 0 1728 6980" fill="none" xmlns="http://www.w3.org/2000/svg">
<path d="M0 0H1728V6714.5L1443.21 6836.01C1280.9 6905.26 1092.35 6858.52 981.173 6721.48V6721.48C901.489 6623.26 758.072 6606.37 657.757 6683.4L647.706 6691.12C449.811 6843.08 163.05 6783.07 42.6885 6564.52L0 6487V0Z" fill="url(#paint0_radial_38_193)"/>
<path d="M0 0H1728V6423.03L1653.21 6472.01C1511.25 6565 1332.22 6580.95 1176.05 6514.54L1022.19 6449.1C945.829 6416.63 859.432 6417.23 783.535 6450.76L679.348 6496.8C447.418 6599.27 175.544 6510.32 49.0362 6290.58L0 6205.4V0Z" fill="url(#paint1_radial_38_193)" fill-opacity="0.5"/>
<path d="M0 0H1728V6321.06L1650.72 6370.87C1510.05 6461.55 1333.75 6477.12 1179.36 6412.5L1020.57 6346.04C945.146 6314.48 860.104 6315.06 785.121 6347.67L675.155 6395.48C444.855 6495.62 176.05 6407.83 49.2457 6191.07L0 6106.89V0Z" fill="url(#paint2_radial_38_193)" fill-opacity="0.45"/>
<path d="M0 0H1728V6005.93V6005.93C1552.54 6162.38 1289.72 6169.16 1106.43 6021.95L987.84 5926.71C924.358 5875.72 842.878 5852.73 762.108 5863.01L296.596 5922.26C202.508 5934.24 106.959 5918.99 21.2746 5878.32L0 5868.22V0Z" fill="url(#paint3_radial_38_193)" fill-opacity="0.45"/>
<path d="M0 0H1728V5727.53L1635.49 5781.56C1503 5858.94 1342.62 5872.3 1199.15 5817.89L1010.94 5746.51C941.164 5720.05 864.028 5720.55 794.595 5747.9L649.599 5805.03C429.722 5891.66 179.261 5811.13 51.0788 5612.58L0 5533.47V0Z" fill="url(#paint4_radial_38_193)" fill-opacity="0.45"/>
<path d="M0 0H1728V5183.91L1707.12 5205.1C1509.78 5405.35 1187.32 5407.24 987.653 5209.31L935.503 5157.62C850.903 5073.76 720.459 5057.33 617.707 5117.59V5117.59C436.636 5223.79 205.522 5185.27 68.6853 5026.08L0 4946.18V0Z" fill="url(#paint5_radial_38_193)" fill-opacity="0.45"/>
<path d="M0 0H1728V4273.37L1671.66 4320.51C1484.7 4476.9 1213.01 4478.47 1024.26 4324.23L940.158 4255.5C849.793 4181.66 723.251 4167.68 618.188 4218.47V4218.47C431.59 4308.69 205.764 4274.73 56.1724 4131.27L0 4077.4V0Z" fill="url(#paint6_radial_38_193)" fill-opacity="0.5"/>
<mask id="mask0_38_193" style="mask-type:alpha" maskUnits="userSpaceOnUse" x="0" y="5568" width="1728" height="1349">
<rect y="5568" width="1728" height="1349" fill="white"/>
</mask>
<g mask="url(#mask0_38_193)">
<path d="M720 6650C713 6664.56 532.346 6805.5 357.592 6805.5C182.838 6805.5 -41 6664.56 -41 6459C-24.163 6332.13 182.838 6694.6 357.592 6694.6C532.346 6694.6 747.634 6592.51 720 6650Z" fill="url(#paint7_linear_38_193)"/>
<path d="M716 6654C699 6684 575.082 6717 375.11 6717C175.139 6717 -81 6576.98 -81 6372.76C-61.7333 6246.72 175.139 6606.82 375.11 6606.82C575.082 6606.82 747.901 6597.7 716 6654Z" fill="url(#paint8_linear_38_193)" fill-opacity="0.51"/>
<path d="M713.5 6656.5C700.753 6672.5 580.968 6681 391.394 6681C201.82 6681 -41 6545.13 -41 6346.97C-22.7351 6224.67 201.82 6574.09 391.394 6574.09C580.968 6574.09 752.477 6607.58 713.5 6656.5Z" fill="url(#paint9_linear_38_193)" fill-opacity="0.26"/>
<path d="M717.319 5858.54C702.976 5871.37 515.879 5944 302.578 5944C73.7274 5944 -96.7343 5874.22 -207 5747.1C-186.449 5649.01 61.2679 5909.25 274.568 5909.25C487.869 5909.25 761.174 5819.3 717.319 5858.54Z" fill="url(#paint10_linear_38_193)" fill-opacity="0.15"/>
<path d="M1761.81 6737.42C1768.37 6754.38 1574.15 6892.92 1399.4 6892.92C1224.65 6892.92 960.808 6817.01 960.808 6718.48C960.808 6646.98 1224.65 6808.48 1399.4 6808.48C1574.15 6808.48 1738.81 6677.92 1761.81 6737.42Z" fill="url(#paint11_linear_38_193)"/>
<path d="M1875.94 6623.84C1884.75 6641.93 1674.27 6809.96 1475.03 6824.31C1275.78 6838.66 969.404 6830.17 961.615 6722C955.963 6643.5 1269.1 6745.96 1468.35 6731.61C1667.6 6717.27 1845.01 6560.41 1875.94 6623.84Z" fill="url(#paint12_linear_38_193)" fill-opacity="0.59"/>
<path d="M1791.44 6569.07C1799.55 6587.21 1610.06 6753.73 1429.7 6766.72C1249.34 6779.71 968.904 6833.17 961.115 6725C955.463 6646.5 1242.67 6687.01 1423.03 6674.02C1603.39 6661.03 1763 6505.46 1791.44 6569.07Z" fill="url(#paint13_linear_38_193)" fill-opacity="0.24"/>
<path d="M1803.51 6237.87C1810.96 6248.33 1593.6 6458.4 1395 6458.44C1196.41 6458.47 890.019 6345.75 890.008 6284.99C890.001 6240.9 1190.3 6437.51 1388.89 6437.48C1587.49 6437.45 1777.36 6201.18 1803.51 6237.87Z" fill="url(#paint14_linear_38_193)" fill-opacity="0.2"/>
<path d="M1735.07 5719.47C1742.05 5726.12 1518.68 5835.8 1322.03 5822.93C1125.37 5810.06 826.348 5723.76 828.691 5687.95C830.391 5661.97 1120.13 5797.32 1316.78 5810.19C1513.44 5823.05 1710.6 5696.16 1735.07 5719.47Z" fill="url(#paint15_linear_38_193)" fill-opacity="0.1"/>
<path d="M1663.84 6284.99C1663.84 6297.83 1634.41 6371.03 1435.81 6371.06C1237.22 6371.1 1092.01 6329.26 1092 6268.5C1091.99 6224.41 1231.11 6350.14 1429.7 6350.11C1628.3 6350.07 1663.84 6242.5 1663.84 6284.99Z" fill="url(#paint16_linear_38_193)" fill-opacity="0.2"/>
<path d="M536.686 5974.61C536.686 5987.46 434.596 6021.37 236 6021.41C37.4042 6021.44 -107.804 5979.61 -107.814 5918.84C-107.822 5874.75 31.291 6000.48 229.887 6000.45C428.483 6000.42 536.686 5932.13 536.686 5974.61Z" fill="url(#paint17_linear_38_193)" fill-opacity="0.2"/>
</g>
<path d="M1609.84 6781.33C1609.87 6777.24 1615.29 6775.82 1617.32 6779.37L1620.91 6785.64C1621.43 6786.55 1622.29 6787.22 1623.29 6787.51L1632.48 6790.1C1635.41 6790.93 1636.37 6794.61 1634.23 6796.77L1627.5 6803.54C1626.76 6804.29 1626.35 6805.29 1626.34 6806.34L1626.29 6813.57C1626.26 6817.65 1620.85 6819.07 1618.82 6815.53L1615.22 6809.25C1614.7 6808.34 1613.85 6807.68 1612.84 6807.39L1603.66 6804.79C1600.72 6803.96 1599.76 6800.29 1601.91 6798.13L1608.63 6791.35C1609.37 6790.61 1609.79 6789.61 1609.8 6788.56L1609.84 6781.33Z" fill="#FCFFF4"/>
<circle cx="1599.52" cy="6821.27" r="5" fill="#FCFFF4"/>
<circle cx="1645.52" cy="6787.27" r="5" fill="#FCFFF4"/>
<circle cx="1630.52" cy="6777.27" r="5" fill="#FCFFF4"/>
<path d="M1102.45 6747.94C1105.06 6744.79 1110.15 6747.13 1109.47 6751.16L1108.27 6758.29C1108.1 6759.32 1108.33 6760.38 1108.93 6761.24L1114.39 6769.07C1116.13 6771.57 1114.54 6775.03 1111.51 6775.34L1102.02 6776.31C1100.98 6776.42 1100.02 6776.93 1099.35 6777.73L1094.72 6783.29C1092.11 6786.44 1087.03 6784.1 1087.7 6780.07L1088.91 6772.94C1089.08 6771.91 1088.84 6770.85 1088.24 6769.99L1082.79 6762.16C1081.05 6759.66 1082.63 6756.2 1085.66 6755.89L1095.16 6754.92C1096.2 6754.81 1097.16 6754.3 1097.83 6753.5L1102.45 6747.94Z" fill="#FCFFF4"/>
<circle cx="1069.15" cy="6772.27" r="5" transform="rotate(39.3547 1069.15 6772.27)" fill="#FCFFF4"/>
<circle cx="1126.27" cy="6775.15" r="5" transform="rotate(39.3547 1126.27 6775.15)" fill="#FCFFF4"/>
<circle cx="1121.02" cy="6757.91" r="5" transform="rotate(39.3547 1121.02 6757.91)" fill="#FCFFF4"/>
<circle cx="1157.04" cy="6792.04" r="5" transform="rotate(39.3547 1157.04 6792.04)" fill="#FCFFF4"/>
<path d="M116.407 6543.48C117.907 6539.68 123.468 6540.31 124.083 6544.35L125.17 6551.5C125.327 6552.53 125.884 6553.46 126.721 6554.09L134.349 6559.83C136.786 6561.66 136.359 6565.44 133.575 6566.68L124.859 6570.57C123.903 6571 123.153 6571.78 122.769 6572.75L120.113 6579.48C118.613 6583.28 113.052 6582.65 112.438 6578.61L111.35 6571.46C111.193 6570.43 110.636 6569.5 109.8 6568.87L102.171 6563.13C99.7348 6561.3 100.161 6557.52 102.945 6556.28L111.661 6552.39C112.617 6551.97 113.368 6551.18 113.752 6550.21L116.407 6543.48Z" fill="#FCFFF4"/>
<circle cx="92.3716" cy="6577.01" r="5" transform="rotate(21.1501 92.3716 6577.01)" fill="#FCFFF4"/>
<circle cx="147.54" cy="6561.89" r="5" transform="rotate(21.1501 147.54 6561.89)" fill="#FCFFF4"/>
<circle cx="137.159" cy="6547.15" r="5" transform="rotate(21.1501 137.159 6547.15)" fill="#FCFFF4"/>
<circle cx="182.037" cy="6568.32" r="5" transform="rotate(21.1501 182.037 6568.32)" fill="#FCFFF4"/>
<path d="M475.407 6693.48C476.907 6689.68 482.468 6690.31 483.082 6694.35L484.17 6701.5C484.327 6702.53 484.884 6703.46 485.72 6704.09L493.349 6709.83C495.785 6711.66 495.359 6715.44 492.575 6716.68L483.859 6720.57C482.903 6721 482.153 6721.78 481.768 6722.75L479.113 6729.48C477.613 6733.28 472.052 6732.65 471.437 6728.61L470.35 6721.46C470.193 6720.43 469.636 6719.5 468.799 6718.87L461.171 6713.13C458.735 6711.3 459.161 6707.52 461.945 6706.28L470.661 6702.39C471.617 6701.97 472.367 6701.18 472.752 6700.21L475.407 6693.48Z" fill="#FCFFF4"/>
<circle cx="451.371" cy="6727.01" r="5" transform="rotate(21.1501 451.371 6727.01)" fill="#FCFFF4"/>
<circle cx="506.54" cy="6711.89" r="5" transform="rotate(21.1501 506.54 6711.89)" fill="#FCFFF4"/>
<circle cx="496.159" cy="6697.15" r="5" transform="rotate(21.1501 496.159 6697.15)" fill="#FCFFF4"/>
<circle cx="541.037" cy="6718.32" r="5" transform="rotate(21.1501 541.037 6718.32)" fill="#FCFFF4"/>
<path d="M1226.1 3992.78C1228.09 3992.13 1229.61 3994.59 1228.15 3996.08L1223.48 4000.83C1206.87 4017.74 1185.92 4029.74 1162.94 4035.52L1153.49 4037.9L1175.32 3995.47L1182.13 3998.49C1189.36 4001.69 1197.51 4002.11 1205.02 3999.66L1226.1 3992.78Z" fill="#598EBB" fill-opacity="0.3"/>
<path d="M1085.79 3902.91C1085.55 3900.83 1082.68 3900.48 1081.93 3902.43L1079.57 3908.66C1071.16 3930.82 1069.02 3954.86 1073.38 3978.16L1075.17 3987.74L1104.58 3950.17L1098.99 3945.24C1093.06 3940.01 1089.27 3932.78 1088.36 3924.93L1085.79 3902.91Z" fill="#598EBB" fill-opacity="0.3"/>
<path d="M1044.42 4137.52C1037.93 4140.56 1030.45 4135.99 1030.19 4128.83L1029.01 4096.34C1028.97 4095.37 1029.08 4094.39 1029.33 4093.45L1039.53 4054.48C1041.5 4046.98 1044.32 4039.73 1047.96 4032.89L1065.94 3999.05L1146.78 4050.82L1120.68 4082.41C1116.77 4087.14 1112.44 4091.49 1107.74 4095.42L1074.94 4122.86C1074.28 4123.41 1073.55 4123.87 1072.77 4124.24L1044.42 4137.52Z" fill="#598EBB" fill-opacity="0.3"/>
<path d="M1281.37 3779.59C1288 3764.07 1267.9 3751.11 1256.51 3763.57L1197.21 3828.4L1148.62 3880.13C1145.08 3883.89 1141.84 3887.93 1138.93 3892.19L1065.94 3999.05L1146.78 4050.82L1215.63 3932.11L1246.89 3860.22L1281.37 3779.59Z" fill="#598EBB" fill-opacity="0.3"/>
<path d="M1306.93 3712.23C1307.78 3712.77 1308.08 3713.86 1307.65 3714.77L1281.56 3769.01L1265.14 3758.5L1304.34 3712.61C1304.98 3711.86 1306.09 3711.69 1306.93 3712.23Z" fill="#598EBB" fill-opacity="0.3"/>
<path d="M1476.52 3882.05C1478.37 3881.08 1480.29 3883.25 1479.09 3884.97L1475.29 3890.43C1461.76 3909.89 1443.13 3925.24 1421.45 3934.81L1412.53 3938.74L1426.91 3893.25L1434.14 3895.08C1441.8 3897.02 1449.91 3896.06 1456.9 3892.38L1476.52 3882.05Z" fill="#598EBB" fill-opacity="0.3"/>
<path d="M1323.09 3817.06C1322.51 3815.05 1319.62 3815.19 1319.21 3817.24L1317.93 3823.78C1313.37 3847.03 1315.3 3871.09 1323.51 3893.32L1326.89 3902.47L1349.57 3860.48L1343.22 3856.57C1336.5 3852.41 1331.55 3845.92 1329.33 3838.34L1323.09 3817.06Z" fill="#598EBB" fill-opacity="0.3"/>
<path d="M1321.77 4055.29C1315.89 4059.38 1307.74 4056.13 1306.27 4049.11L1299.65 4017.29C1299.45 4016.33 1299.39 4015.35 1299.48 4014.38L1302.98 3974.25C1303.66 3966.52 1305.23 3958.91 1307.66 3951.55L1319.7 3915.16L1408.09 3952.61L1387.67 3988.14C1384.62 3993.45 1381.08 3998.47 1377.11 4003.14L1349.39 4035.7C1348.83 4036.35 1348.19 4036.94 1347.48 4037.43L1321.77 4055.29Z" fill="#598EBB" fill-opacity="0.3"/>
<path d="M1495.15 3662.61C1499.08 3646.19 1477.08 3636.8 1467.95 3651L1420.4 3724.87L1381.2 3784.04C1378.34 3788.34 1375.83 3792.86 1373.67 3797.56L1319.7 3915.16L1408.09 3952.61L1455.99 3824L1474.72 3747.88L1495.15 3662.61Z" fill="#598EBB" fill-opacity="0.3"/>
<path d="M1509.01 3591.9C1509.94 3592.3 1510.43 3593.32 1510.15 3594.29L1493.56 3652.15L1475.6 3644.54L1506.53 3592.72C1507.04 3591.86 1508.1 3591.52 1509.01 3591.9Z" fill="#598EBB" fill-opacity="0.3"/>
<circle cx="1030.5" cy="4140.5" r="2.5" fill="#BCE1ED"/>
<circle cx="1023" cy="4136" r="4" fill="#BCE1ED"/>
<circle cx="1023" cy="4125" r="5" fill="#BCE1ED"/>
<circle cx="1305.5" cy="4062.5" r="2.5" fill="#BCE1ED"/>
<circle cx="1298" cy="4058" r="4" fill="#BCE1ED"/>
<circle cx="1298" cy="4047" r="5" fill="#BCE1ED"/>
<path fill-rule="evenodd" clip-rule="evenodd" d="M297 4966C352.228 4966 397 4921.23 397 4866C397 4810.77 352.228 4766 297 4766C241.772 4766 197 4810.77 197 4866C197 4921.23 241.772 4966 297 4966ZM297 4906C319.091 4906 337 4888.09 337 4866C337 4843.91 319.091 4826 297 4826C274.909 4826 257 4843.91 257 4866C257 4888.09 274.909 4906 297 4906Z" fill="#FFEBEB"/>
<mask id="mask1_38_193" style="mask-type:alpha" maskUnits="userSpaceOnUse" x="205" y="4772" width="184" height="186">
<path d="M205.295 4815.74L216.896 4783.28L250.908 4772.56L284.044 4832.75L264.428 4851.14L205.295 4815.74Z" fill="#D9D9D9"/>
<path d="M205.295 4914.25L216.896 4946.71L250.908 4957.44L284.044 4897.24L264.428 4878.86L205.295 4914.25Z" fill="#D9D9D9"/>
<path d="M388.427 4914.25L376.826 4946.71L342.814 4957.44L309.678 4897.24L329.294 4878.86L388.427 4914.25Z" fill="#D9D9D9"/>
<path d="M388.427 4815.74L376.826 4783.28L342.814 4772.56L309.678 4832.75L329.294 4851.14L388.427 4815.74Z" fill="#D9D9D9"/>
</mask>
<g mask="url(#mask1_38_193)">
<path fill-rule="evenodd" clip-rule="evenodd" d="M297 4966C352.228 4966 397 4921.23 397 4866C397 4810.77 352.228 4766 297 4766C241.772 4766 197 4810.77 197 4866C197 4921.23 241.772 4966 297 4966ZM297 4906C319.091 4906 337 4888.09 337 4866C337 4843.91 319.091 4826 297 4826C274.909 4826 257 4843.91 257 4866C257 4888.09 274.909 4906 297 4906Z" fill="#FEA1A1"/>
</g>
<defs>
<radialGradient id="paint0_radial_38_193" cx="0" cy="0" r="1" gradientUnits="userSpaceOnUse" gradientTransform="translate(364 -503.5) rotate(85.796) scale(6820.52 1990.48)">
<stop stop-color="#457098"/>
<stop offset="0.399884" stop-color="#5BA2E2"/>
<stop offset="0.597748" stop-color="#68AAE4"/>
<stop offset="1" stop-color="#BCE1ED"/>
</radialGradient>
<radialGradient id="paint1_radial_38_193" cx="0" cy="0" r="1" gradientUnits="userSpaceOnUse" gradientTransform="translate(2643.5 -1480.5) rotate(103.338) scale(7713.8 1806.29)">
<stop stop-color="#457098" stop-opacity="0.26"/>
<stop offset="0.0001" stop-color="#457098" stop-opacity="0.26"/>
<stop offset="0.399884" stop-color="#538FC5" stop-opacity="0.12"/>
<stop offset="1" stop-color="#98D5E8" stop-opacity="0.53"/>
</radialGradient>
<radialGradient id="paint2_radial_38_193" cx="0" cy="0" r="1" gradientUnits="userSpaceOnUse" gradientTransform="translate(1426 -631) rotate(94.8962) scale(6584.61 2031.43)">
<stop stop-color="#457098" stop-opacity="0.26"/>
<stop offset="0.0001" stop-color="#457098" stop-opacity="0.26"/>
<stop offset="0.399884" stop-color="#538FC5" stop-opacity="0.12"/>
<stop offset="1" stop-color="#98D5E8" stop-opacity="0.53"/>
</radialGradient>
<radialGradient id="paint3_radial_38_193" cx="0" cy="0" r="1" gradientUnits="userSpaceOnUse" gradientTransform="translate(-791.5 -1853.79) rotate(77.5328) scale(7668.59 2478.7)">
<stop stop-color="#457098" stop-opacity="0.26"/>
<stop offset="0.0001" stop-color="#457098" stop-opacity="0.26"/>
<stop offset="0.399884" stop-color="#538FC5" stop-opacity="0.12"/>
<stop offset="1" stop-color="#98D5E8" stop-opacity="0.53"/>
</radialGradient>
<radialGradient id="paint4_radial_38_193" cx="0" cy="0" r="1" gradientUnits="userSpaceOnUse" gradientTransform="translate(1496.5 -588.5) rotate(96.0565) scale(5994.78 2022.48)">
<stop stop-color="#457098"/>
<stop stop-color="#457098"/>
<stop offset="0.399884" stop-color="#538FC5" stop-opacity="0.12"/>
<stop offset="1" stop-color="#98D5E8" stop-opacity="0.53"/>
</radialGradient>
<radialGradient id="paint5_radial_38_193" cx="0" cy="0" r="1" gradientUnits="userSpaceOnUse" gradientTransform="translate(-153 -967.766) rotate(80.9301) scale(6451.44 2393.9)">
<stop stop-color="#457098"/>
<stop offset="0.515625" stop-color="#5BA2E2" stop-opacity="0.35"/>
<stop offset="0.807292" stop-color="#538FC5" stop-opacity="0.12"/>
</radialGradient>
<radialGradient id="paint6_radial_38_193" cx="0" cy="0" r="1" gradientUnits="userSpaceOnUse" gradientTransform="translate(-153 -797.782) rotate(79.0404) scale(5349.34 2380)">
<stop stop-color="#457098" stop-opacity="0.26"/>
<stop offset="0.515625" stop-color="#5BA2E2" stop-opacity="0.35"/>
<stop offset="0.807292" stop-color="#538FC5" stop-opacity="0.12"/>
</radialGradient>
<linearGradient id="paint7_linear_38_193" x1="256.847" y1="5250.3" x2="253.964" y2="6787.95" gradientUnits="userSpaceOnUse">
<stop stop-color="#EDF8FF" stop-opacity="0.52"/>
<stop offset="1" stop-color="#EDF8FF"/>
</linearGradient>
<linearGradient id="paint8_linear_38_193" x1="298.99" y1="5267.84" x2="296.347" y2="6805.5" gradientUnits="userSpaceOnUse">
<stop stop-color="#EDF8FF" stop-opacity="0.52"/>
<stop offset="1" stop-color="#EDF8FF"/>
</linearGradient>
<linearGradient id="paint9_linear_38_193" x1="298.391" y1="5267.84" x2="295.746" y2="6805.5" gradientUnits="userSpaceOnUse">
<stop stop-color="#EDF8FF" stop-opacity="0.52"/>
<stop offset="1" stop-color="#EDF8FF"/>
</linearGradient>
<linearGradient id="paint10_linear_38_193" x1="281.106" y1="5544.07" x2="280.901" y2="5954.97" gradientUnits="userSpaceOnUse">
<stop stop-color="#EDF8FF" stop-opacity="0.52"/>
<stop offset="1" stop-color="#EDF8FF"/>
</linearGradient>
<linearGradient id="paint11_linear_38_193" x1="885.234" y1="5016.87" x2="878.579" y2="6892.9" gradientUnits="userSpaceOnUse">
<stop stop-color="#EDF8FF" stop-opacity="0.73"/>
<stop offset="1" stop-color="#EDF8FF"/>
</linearGradient>
<linearGradient id="paint12_linear_38_193" x1="935.703" y1="4539.09" x2="927.225" y2="6652.71" gradientUnits="userSpaceOnUse">
<stop stop-color="#EDF8FF" stop-opacity="0.73"/>
<stop offset="1" stop-color="#EDF8FF"/>
</linearGradient>
<linearGradient id="paint13_linear_38_193" x1="897.683" y1="4801.7" x2="889.547" y2="6862.94" gradientUnits="userSpaceOnUse">
<stop stop-color="#EDF8FF" stop-opacity="0.73"/>
<stop offset="1" stop-color="#EDF8FF"/>
</linearGradient>
<linearGradient id="paint14_linear_38_193" x1="899.454" y1="5786.7" x2="897.581" y2="6780.36" gradientUnits="userSpaceOnUse">
<stop stop-color="#EDF8FF" stop-opacity="0.73"/>
<stop offset="1" stop-color="#EDF8FF"/>
</linearGradient>
<linearGradient id="paint15_linear_38_193" x1="1289.25" y1="5699.22" x2="1282.09" y2="5807.95" gradientUnits="userSpaceOnUse">
<stop stop-color="#EDF8FF" stop-opacity="0.73"/>
<stop offset="1" stop-color="#EDF8FF"/>
</linearGradient>
<linearGradient id="paint16_linear_38_193" x1="899.454" y1="5786.7" x2="897.581" y2="6780.36" gradientUnits="userSpaceOnUse">
<stop stop-color="#EDF8FF" stop-opacity="0.73"/>
<stop offset="1" stop-color="#EDF8FF"/>
</linearGradient>
<linearGradient id="paint17_linear_38_193" x1="899.454" y1="5786.7" x2="897.581" y2="6780.36" gradientUnits="userSpaceOnUse">
<stop stop-color="#EDF8FF" stop-opacity="0.73"/>
<stop offset="1" stop-color="#EDF8FF"/>
</linearGradient>
</defs>
</svg>
