<svg width="200" height="200" viewBox="0 0 200 200" fill="none" xmlns="http://www.w3.org/2000/svg">
<circle cx="100" cy="100" r="100" fill="#CBBF82"/>
<circle cx="100" cy="100" r="85" fill="#FEEFA1"/>
<rect x="89.5" y="150.5" width="100" height="21" rx="6" transform="rotate(-90 89.5 150.5)" fill="#CBBF82"/>
<path d="M111.257 61.2277C112.757 57.4274 118.318 58.0557 118.933 62.0949L120.02 69.2462C120.177 70.2809 120.734 71.2128 121.57 71.8418L129.199 77.5781C131.635 79.4103 131.209 83.1855 128.425 84.4279L119.709 88.3174C118.753 88.744 118.003 89.5281 117.618 90.5017L114.963 97.23C113.463 101.03 107.902 100.402 107.287 96.3628L106.2 89.2115C106.043 88.1768 105.486 87.2449 104.65 86.6159L97.0212 80.8796C94.5846 79.0474 95.0112 75.2722 97.7951 74.0298L106.511 70.1403C107.467 69.7138 108.217 68.9296 108.602 67.956L111.257 61.2277Z" fill="#FCFFF4"/>
<circle cx="90.467" cy="96.4673" r="5" transform="rotate(21.1501 90.467 96.4673)" fill="#FCFFF4"/>
<circle cx="143.541" cy="76.8935" r="5" transform="rotate(21.1501 143.541 76.8935)" fill="#FCFFF4"/>
<circle cx="133.159" cy="62.1549" r="5" transform="rotate(21.1501 133.159 62.1549)" fill="#FCFFF4"/>
</svg>
